<svg xmlns="http://www.w3.org/2000/svg" width="80" height="80" viewBox="0 0 254.56 254.56"><circle cx="127.28" cy="127.28" r="127.28" fill="#003479"/><path d="M225.22,206l-1.19-.91a102.85,102.85,0,0,0,21.54-63.33A104,104,0,0,0,232.34,91l1.31-.73a105.4,105.4,0,0,1,13.42,51.49A104.34,104.34,0,0,1,225.22,206Z" transform="translate(-14.45 -14.45)" fill="#fff"/><path d="M58.25,206A104.28,104.28,0,0,1,36.4,141.73,105.4,105.4,0,0,1,49.82,90.24l1.31.73a103.94,103.94,0,0,0,8.3,114.09Z" transform="translate(-14.45 -14.45)" fill="#fff"/><path d="M62.68,81.56l-11.94-4,1.35-1.73,8,2.83,1,.43a10,10,0,0,1-.68-.9l-4.72-7,1.33-1.7L63.9,80Z" transform="translate(-14.45 -14.45)" fill="#fff"/><path d="M73.4,69.56l-2.5-1.17-3.31,3.35,1.19,2.49-1.52,1.54L61.92,64.25l1.42-1.44L74.91,68Zm-4.26-2L65.68,66a8.64,8.64,0,0,1-1.14-.57c.17.3.37.67.59,1.13L66.73,70Z" transform="translate(-14.45 -14.45)" fill="#fff"/><path d="M77.62,65.78l-7.37-9.34,1.6-1.27L78,63l4.54-3.58,1.21,1.54Z" transform="translate(-14.45 -14.45)" fill="#fff"/><path d="M84.17,48.82l5.32,8.4-1.72,1.09-5.32-8.4-2.86,1.81-1-1.65L86,45.36,87,47Z" transform="translate(-14.45 -14.45)" fill="#fff"/><path d="M101.43,50.85l-2-1.93-4.24,2,.29,2.75-1.94.94L92.37,42l1.82-.88,9.17,8.78Zm-3.36-3.3-2.73-2.64a10.54,10.54,0,0,1-.88-.92q.09.51.18,1.26L95,49Z" transform="translate(-14.45 -14.45)" fill="#fff"/><path d="M113.67,46.37l-4.89-4.68-1.23,3.17,1,3.17-1.94.63L103,37.35l1.94-.63,1.77,5.43,2.54-6.84,2.27-.74-1.93,5.06,6.39,6Z" transform="translate(-14.45 -14.45)" fill="#fff"/><path d="M123.65,44.25a6,6,0,0,1-1.78.07,4.23,4.23,0,0,1-1.58-.5A3.47,3.47,0,0,1,119,42.55a5.87,5.87,0,0,1-.77-2.13l-1.34-7.24,2-.37,1.33,7.24a2.84,2.84,0,0,0,1.06,2,2.68,2.68,0,0,0,2,.26,2.71,2.71,0,0,0,1.78-1,2.84,2.84,0,0,0,.27-2.25L124,31.87l2-.37,1.34,7.24a6.35,6.35,0,0,1,0,2.25,3.5,3.5,0,0,1-.74,1.64,4.2,4.2,0,0,1-1.29,1A5.81,5.81,0,0,1,123.65,44.25Z" transform="translate(-14.45 -14.45)" fill="#fff"/><path d="M141.84,42.29l-1.86.08-5.26-7.28a8.32,8.32,0,0,1-.53-.86,5.81,5.81,0,0,1,.09.88l.34,7.5-2,.09-.54-11.88,2-.09,5.14,7.17a9.73,9.73,0,0,1,.53.88q-.06-.47-.09-.9l-.33-7.39,2-.09Z" transform="translate(-14.45 -14.45)" fill="#fff"/><path d="M155.63,43.25l-1.84-.17-4.22-7.93a8.5,8.5,0,0,1-.41-.93,6.69,6.69,0,0,1,0,.88l-.69,7.49-2-.19,1.1-11.85,2,.18,4.1,7.81a7.69,7.69,0,0,1,.41.94,8.82,8.82,0,0,1,0-.9l.69-7.36,2,.18Z" transform="translate(-14.45 -14.45)" fill="#fff"/><path d="M167.57,45.73,167.25,43l-4.59-1.07-1.5,2.32-2.1-.49,7-10.58,2,.46,1.6,12.59ZM167,41.05l-.46-3.77a10.07,10.07,0,0,1-.11-1.27c-.16.3-.38.67-.65,1.09l-2.1,3.18Z" transform="translate(-14.45 -14.45)" fill="#fff"/><path d="M173,47.35l4.12-11.16,1.91.71-3.44,9.33,5.42,2-.68,1.83Z" transform="translate(-14.45 -14.45)" fill="#fff"/><path d="M183.52,51.53l5.38-10.62,1.82.92-4.49,8.87,5.15,2.61-.88,1.75Z" transform="translate(-14.45 -14.45)" fill="#fff"/><path d="M193.62,57,200,46.93,201.67,48l-6.32,10.08Z" transform="translate(-14.45 -14.45)" fill="#fff"/><path d="M202.19,63.17a4.85,4.85,0,0,1-1.72-2.37,4.43,4.43,0,0,1,0-2.81l1.93.6a3.2,3.2,0,0,0,0,1.71,2.58,2.58,0,0,0,1,1.37,2.47,2.47,0,0,0,1.44.58,1.46,1.46,0,0,0,1.18-.64,1.22,1.22,0,0,0,.25-.57,1.89,1.89,0,0,0,0-.58,2.45,2.45,0,0,0-.24-.66c-.13-.26-.24-.47-.34-.64s-.25-.4-.46-.71-.47-.71-.6-.93a6.56,6.56,0,0,1-.47-.93,3.68,3.68,0,0,1-.3-1,3.06,3.06,0,0,1,.11-1,2.75,2.75,0,0,1,.54-1.08,2.86,2.86,0,0,1,2.22-1.16,4.81,4.81,0,0,1,4.36,3.09,3.46,3.46,0,0,1-.07,2.27L209.23,57a2.07,2.07,0,0,0-.93-2.25,2,2,0,0,0-1.19-.5,1.08,1.08,0,0,0-.93.47,1,1,0,0,0-.17.79,2.34,2.34,0,0,0,.3.84c.14.25.37.6.68,1s.34.54.44.69.23.4.4.7a6.18,6.18,0,0,1,.34.78,4.57,4.57,0,0,1,.2.76,2.64,2.64,0,0,1,0,.83,3.65,3.65,0,0,1-.23.82,3.52,3.52,0,0,1-.48.86,3.22,3.22,0,0,1-2.54,1.36A4.66,4.66,0,0,1,202.19,63.17Z" transform="translate(-14.45 -14.45)" fill="#fff"/><path d="M208.71,68.27l8.34-8.48,5.53,5.44-1.35,1.37-4.07-4-2,2,2.5,2.47-1.34,1.37L213.8,66l-2.29,2.32,4.34,4.27L214.5,74Z" transform="translate(-14.45 -14.45)" fill="#fff"/><path d="M222.86,84.21l-1.14-1.46,2.88-8.51a6.11,6.11,0,0,1,.39-.94,8,8,0,0,1-.67.59l-5.91,4.63-1.25-1.6,9.37-7.33,1.22,1.55-2.86,8.35c-.07.19-.2.51-.41.94.22-.21.45-.41.68-.59L231,75.28l1.25,1.59Z" transform="translate(-14.45 -14.45)" fill="#fff"/><path d="M81.4,205.48H87a10.11,10.11,0,0,1,3.35.52,7.56,7.56,0,0,1,2.5,1.38,7.47,7.47,0,0,1,1.65,2,9.45,9.45,0,0,1,1,2.47,11.8,11.8,0,0,1,.3,2.69,12,12,0,0,1-.27,2.55,9.44,9.44,0,0,1-.94,2.45,8,8,0,0,1-1.65,2.11,7.27,7.27,0,0,1-2.53,1.44,10.29,10.29,0,0,1-3.48.55H81.4Zm6,15.26a5.3,5.3,0,0,0,2.43-.54,4.34,4.34,0,0,0,1.64-1.47,7.17,7.17,0,0,0,.85-2,8.19,8.19,0,0,0,.28-2.18,7.51,7.51,0,0,0-1.25-4.36,4.18,4.18,0,0,0-3.67-1.8H84.52v12.32Z" transform="translate(-14.45 -14.45)" fill="#fff"/><path d="M100.72,223.68v-18.2h3.12v18.2Z" transform="translate(-14.45 -14.45)" fill="#fff"/><path d="M116.76,224a7.88,7.88,0,0,1-3.6-.79,6.51,6.51,0,0,1-2.51-2.15,10,10,0,0,1-1.4-3,12.3,12.3,0,0,1-.47-3.48,12.17,12.17,0,0,1,.3-2.68,10.09,10.09,0,0,1,1-2.55,8.93,8.93,0,0,1,1.56-2.14,6.53,6.53,0,0,1,2.25-1.48,7.34,7.34,0,0,1,2.92-.56,6.8,6.8,0,0,1,3.85,1,8.72,8.72,0,0,1,2.52,2.69l-2.78,1.59a4.19,4.19,0,0,0-5.86-1.65,4,4,0,0,0-1.5,1.56,7.59,7.59,0,0,0-.75,2,10,10,0,0,0-.24,2.21,8.18,8.18,0,0,0,1.2,4.55,4,4,0,0,0,3.56,1.85,3.42,3.42,0,0,0,2.51-1,3.27,3.27,0,0,0,1-2.42v-.29h-3.2v-2.93h6.37v2.52a7.12,7.12,0,0,1-1.87,5.24A6.51,6.51,0,0,1,116.76,224Z" transform="translate(-14.45 -14.45)" fill="#fff"/><path d="M128.33,223.68v-18.2h3.12v18.2Z" transform="translate(-14.45 -14.45)" fill="#fff"/><path d="M144.16,208.47v15.21H141V208.47h-5.17v-3h13.47v3Z" transform="translate(-14.45 -14.45)" fill="#fff"/><path d="M160.6,224a8.92,8.92,0,0,1-2.71-.38,6.68,6.68,0,0,1-2.23-1.19,5.37,5.37,0,0,1-1.59-2.26,9.35,9.35,0,0,1-.57-3.42V205.48h3.12v11.26a4.38,4.38,0,0,0,1,3.31,5,5,0,0,0,5.91,0,4.4,4.4,0,0,0,1-3.3V205.48h3.12v11.26a9.41,9.41,0,0,1-.55,3.39,5.43,5.43,0,0,1-1.56,2.26,6.68,6.68,0,0,1-2.24,1.21A9.07,9.07,0,0,1,160.6,224Z" transform="translate(-14.45 -14.45)" fill="#fff"/><path d="M184.33,223.68l-4.88-9.13-3.31,4v5.1H173v-18.2h3.12v8.74l7-8.74h3.64l-5.2,6.45L188,223.68Z" transform="translate(-14.45 -14.45)" fill="#fff"/><path d="M192.26,223.68v-18.2h3.12v18.2Z" transform="translate(-14.45 -14.45)" fill="#fff"/><path d="M200.71,217.44V214.5h6.61v2.94Z" transform="translate(-14.45 -14.45)" fill="#fff"/><path d="M83.66,239.68l-2.93-8.4h1.55L84.16,237c.1.36.18.61.22.76,0-.16.1-.42.2-.76l1.87-5.68H88l-2.92,8.4Z" transform="translate(-14.45 -14.45)" fill="#fff"/><path d="M89.62,239.68v-8.4h5.47v1.36h-4v2h2.49V236H91.06v2.3h4.3v1.36Z" transform="translate(-14.45 -14.45)" fill="#fff"/><path d="M97.46,239.68v-8.4h3.72a2.71,2.71,0,0,1,2.1.72,2.76,2.76,0,0,1,.21,3.3,2.21,2.21,0,0,1-1.28.94l1.68,3.44h-1.62l-1.62-3.29H98.9v3.29ZM98.9,235h2.3a1.23,1.23,0,0,0,1-.33,1.24,1.24,0,0,0,.3-.85,1.29,1.29,0,0,0-.29-.85,1.18,1.18,0,0,0-1-.34H98.9Z" transform="translate(-14.45 -14.45)" fill="#fff"/><path d="M111.38,239.68l-2.26-4.21-1.52,1.86v2.35h-1.44v-8.4h1.44v4l3.2-4h1.68l-2.4,3,3,5.42Z" transform="translate(-14.45 -14.45)" fill="#fff"/><path d="M117.88,239.82a3.82,3.82,0,0,1-1.42-.25,3,3,0,0,1-1-.68,4,4,0,0,1-.69-1,4.38,4.38,0,0,1-.4-1.17,6.57,6.57,0,0,1,0-2.5,4.38,4.38,0,0,1,.4-1.17,4,4,0,0,1,.69-1,3,3,0,0,1,1-.68,3.82,3.82,0,0,1,1.42-.25,3.71,3.71,0,0,1,1.71.37,3,3,0,0,1,1.15,1,5,5,0,0,1,.62,1.39,6.18,6.18,0,0,1,0,3.12,5,5,0,0,1-.62,1.39,3,3,0,0,1-1.15,1A3.71,3.71,0,0,1,117.88,239.82Zm0-1.38a1.88,1.88,0,0,0,1.71-1,3.91,3.91,0,0,0,.37-.95,4.29,4.29,0,0,0,.12-1,4.44,4.44,0,0,0-.12-1,3.83,3.83,0,0,0-.37-.94,1.85,1.85,0,0,0-.68-.71,2,2,0,0,0-1-.26,1.8,1.8,0,0,0-1.28.48,2.57,2.57,0,0,0-.72,1.12,4.66,4.66,0,0,0-.2,1.36,4.42,4.42,0,0,0,.12,1,3.75,3.75,0,0,0,.37.95,1.85,1.85,0,0,0,.68.71A2,2,0,0,0,117.88,238.44Z" transform="translate(-14.45 -14.45)" fill="#fff"/><path d="M126.47,239.82a3.33,3.33,0,0,1-2-.58,3.18,3.18,0,0,1-1.19-1.59l1.34-.49a2.19,2.19,0,0,0,.75.94,1.88,1.88,0,0,0,1.13.36,1.68,1.68,0,0,0,1-.3,1,1,0,0,0,.39-.87.88.88,0,0,0-.11-.42,1.08,1.08,0,0,0-.24-.33,1.69,1.69,0,0,0-.42-.27l-.47-.21-.56-.2-.74-.26a4.72,4.72,0,0,1-.66-.32,2.47,2.47,0,0,1-.61-.45,2.13,2.13,0,0,1-.37-.6,2.1,2.1,0,0,1-.16-.84,2,2,0,0,1,.74-1.61,3.44,3.44,0,0,1,3.77-.15,2.45,2.45,0,0,1,.93,1.31l-1.29.43a1.47,1.47,0,0,0-1.49-.87,1.42,1.42,0,0,0-.88.24.78.78,0,0,0-.32.66.67.67,0,0,0,.25.52,1.66,1.66,0,0,0,.52.34q.29.12.84.3l.54.19c.13.05.3.12.53.23a3,3,0,0,1,.52.28,3.52,3.52,0,0,1,.44.34,1.57,1.57,0,0,1,.38.45,3.14,3.14,0,0,1,.23.55,2.5,2.5,0,0,1,.09.69,2.26,2.26,0,0,1-.83,1.86A3.26,3.26,0,0,1,126.47,239.82Z" transform="translate(-14.45 -14.45)" fill="#fff"/><path d="M134.87,232.66v7h-1.44v-7H131v-1.38h6.22v1.38Z" transform="translate(-14.45 -14.45)" fill="#fff"/><path d="M142.23,239.82a3.82,3.82,0,0,1-1.42-.25,3,3,0,0,1-1.05-.68,3.73,3.73,0,0,1-.69-1,4.4,4.4,0,0,1-.41-1.17,6.57,6.57,0,0,1,0-2.5,4.4,4.4,0,0,1,.41-1.17,3.73,3.73,0,0,1,.69-1,3,3,0,0,1,1.05-.68,3.82,3.82,0,0,1,1.42-.25,3.71,3.71,0,0,1,1.71.37,3.09,3.09,0,0,1,1.15,1,5,5,0,0,1,.62,1.39,6.18,6.18,0,0,1,0,3.12,5,5,0,0,1-.62,1.39,3.09,3.09,0,0,1-1.15,1A3.71,3.71,0,0,1,142.23,239.82Zm0-1.38a1.94,1.94,0,0,0,1-.27,2.1,2.1,0,0,0,.69-.73,3.88,3.88,0,0,0,.36-.95,4.29,4.29,0,0,0,.12-1,4.44,4.44,0,0,0-.12-1,3.81,3.81,0,0,0-.36-.94,1.88,1.88,0,0,0-1.71-1,1.84,1.84,0,0,0-1.29.48,2.64,2.64,0,0,0-.71,1.12,4.66,4.66,0,0,0-.2,1.36,4.42,4.42,0,0,0,.12,1,3.42,3.42,0,0,0,.37.95,1.85,1.85,0,0,0,.68.71A1.93,1.93,0,0,0,142.23,238.44Z" transform="translate(-14.45 -14.45)" fill="#fff"/><path d="M154.66,239.68h-1.31l-3.48-5.3a5.72,5.72,0,0,1-.35-.63,4.09,4.09,0,0,1,0,.63v5.3h-1.43v-8.4h1.39l3.4,5.22a5.72,5.72,0,0,1,.35.64,4.68,4.68,0,0,1,0-.64v-5.22h1.43Z" transform="translate(-14.45 -14.45)" fill="#fff"/><path d="M162.57,239.82a3,3,0,0,1-1.64-.45,2.84,2.84,0,0,1-1.11-1.26l1.25-.6a1.56,1.56,0,0,0,1.5.93c.93,0,1.4-.59,1.4-1.78v-5.38h1.43v5.53a3.88,3.88,0,0,1-.18,1.23,2.38,2.38,0,0,1-.45.87,2.17,2.17,0,0,1-.66.54,3,3,0,0,1-.76.29A3.33,3.33,0,0,1,162.57,239.82Z" transform="translate(-14.45 -14.45)" fill="#fff"/><path d="M173.77,239.68l-.66-1.84h-3.32l-.66,1.84h-1.52l3.13-8.4h1.43l3.12,8.4Zm-2.86-9.53a.85.85,0,0,1-1.16,0,.83.83,0,0,1,0-1.17.85.85,0,0,1,1.16,0,.83.83,0,0,1,0,1.17Zm1.75,6.4-.93-2.52a6.29,6.29,0,0,1-.27-.85c-.07.23-.16.51-.28.85l-.93,2.52Zm.47-6.4a.85.85,0,0,1-1.16,0,.83.83,0,0,1,0-1.17.85.85,0,0,1,1.16,0,.83.83,0,0,1,0,1.17Z" transform="translate(-14.45 -14.45)" fill="#fff"/><path d="M180.36,239.82a3.35,3.35,0,0,1-2-.58,3.18,3.18,0,0,1-1.19-1.59l1.34-.49a2.19,2.19,0,0,0,.75.94,1.88,1.88,0,0,0,1.13.36,1.68,1.68,0,0,0,1.05-.3,1,1,0,0,0,.39-.87.88.88,0,0,0-.11-.42,1.08,1.08,0,0,0-.24-.33,1.69,1.69,0,0,0-.42-.27l-.47-.21-.56-.2-.74-.26a4.72,4.72,0,0,1-.66-.32,2.47,2.47,0,0,1-.61-.45,2.13,2.13,0,0,1-.37-.6,2.1,2.1,0,0,1-.16-.84,2,2,0,0,1,.74-1.61,3.44,3.44,0,0,1,3.77-.15,2.45,2.45,0,0,1,.93,1.31l-1.29.43a1.47,1.47,0,0,0-1.49-.87,1.42,1.42,0,0,0-.88.24.78.78,0,0,0-.32.66.67.67,0,0,0,.25.52,1.66,1.66,0,0,0,.52.34q.28.12.84.3l.54.19c.13.05.3.12.53.23a3,3,0,0,1,.52.28,3.52,3.52,0,0,1,.44.34,1.57,1.57,0,0,1,.38.45,3.14,3.14,0,0,1,.23.55,2.5,2.5,0,0,1,.09.69,2.26,2.26,0,0,1-.83,1.86A3.26,3.26,0,0,1,180.36,239.82Z" transform="translate(-14.45 -14.45)" fill="#fff"/><path d="M186.19,239.68v-8.4h5.48v1.36h-4v2h2.48V236h-2.48v2.3h4.29v1.36Z" transform="translate(-14.45 -14.45)" fill="#fff"/><path d="M201.28,239.68H200l-3.48-5.3a5.72,5.72,0,0,1-.35-.63,4.09,4.09,0,0,1,0,.63v5.3h-1.43v-8.4h1.39l3.4,5.22c.08.12.19.33.35.64a4.68,4.68,0,0,1,0-.64v-5.22h1.43Z" transform="translate(-14.45 -14.45)" fill="#fff"/><polygon points="134.06 46.58 114.8 62.78 139.76 83.72 139.76 148.37 114.8 148.37 114.8 62.78 89.85 83.68 89.85 169.21 139.76 169.21 164.71 148.37 164.71 71.64 134.06 46.58" fill="#69d8d7"/></svg>