<svg xmlns="http://www.w3.org/2000/svg" xmlns:xlink="http://www.w3.org/1999/xlink" width="500" zoomAndPan="magnify" viewBox="0 0 375 374.999991" height="500" preserveAspectRatio="xMidYMid meet" version="1.0"><defs><g/><clipPath id="1c5b6934f8"><path d="M 53 101.660156 L 322 101.660156 L 322 265.160156 L 53 265.160156 Z M 53 101.660156 " clip-rule="nonzero"/></clipPath></defs><rect x="-37.5" width="450" fill="#ffffff" y="-37.499999" height="449.999989" fill-opacity="1"/><rect x="-37.5" width="450" fill="#ffffff" y="-37.499999" height="449.999989" fill-opacity="1"/><rect x="-37.5" width="450" fill="#ffffff" y="-37.499999" height="449.999989" fill-opacity="1"/><g clip-path="url(#1c5b6934f8)"><path fill="#1a1a1a" d="M 84.363281 101.660156 C 80.183594 101.660156 76.820312 104.953125 76.820312 109.042969 L 76.820312 244.125 C 76.820312 248.015625 76.269531 251.183594 79.8125 251.488281 L 55.011719 251.488281 C 52.078125 251.488281 53.578125 253.773438 53.578125 256.613281 L 53.578125 260.035156 C 53.578125 262.875 55.941406 265.160156 58.875 265.160156 L 315.808594 265.160156 C 318.742188 265.160156 321.105469 262.875 321.105469 260.035156 L 321.105469 256.613281 C 321.105469 253.773438 322.605469 251.488281 319.671875 251.488281 L 294.871094 251.488281 C 298.414062 251.183594 297.863281 248.015625 297.863281 244.125 L 297.863281 109.042969 C 297.863281 104.953125 294.5 101.660156 290.316406 101.660156 Z M 149.558594 103.453125 C 150.632812 103.453125 151.5 104.300781 151.5 105.351562 C 151.5 106.402344 150.632812 107.253906 149.558594 107.253906 C 148.484375 107.253906 147.617188 106.402344 147.617188 105.351562 C 147.617188 104.300781 148.484375 103.453125 149.558594 103.453125 Z M 84.179688 109.058594 L 290.503906 109.058594 L 290.503906 244.109375 L 84.179688 244.109375 Z M 153.800781 251.511719 L 220.882812 251.511719 C 220.785156 252.941406 219.789062 254.058594 218.566406 254.058594 L 156.117188 254.058594 C 154.894531 254.058594 153.898438 252.941406 153.800781 251.511719 Z M 290.007812 255.554688 C 291.585938 255.554688 292.867188 256.796875 292.867188 258.324219 C 292.867188 259.855469 291.585938 261.09375 290.007812 261.09375 C 288.425781 261.09375 287.144531 259.855469 287.144531 258.324219 C 287.144531 256.796875 288.425781 255.554688 290.007812 255.554688 Z M 299.03125 255.554688 C 300.609375 255.554688 301.890625 256.796875 301.890625 258.324219 C 301.890625 259.855469 300.609375 261.09375 299.03125 261.09375 C 297.449219 261.09375 296.167969 259.855469 296.167969 258.324219 C 296.167969 256.796875 297.449219 255.554688 299.03125 255.554688 Z M 308.050781 255.554688 C 309.632812 255.554688 310.914062 256.796875 310.914062 258.324219 C 310.914062 259.855469 309.632812 261.09375 308.050781 261.09375 C 306.472656 261.09375 305.191406 259.855469 305.191406 258.324219 C 305.191406 256.796875 306.472656 255.554688 308.050781 255.554688 Z M 64.996094 257.390625 L 80.003906 257.390625 C 80.738281 257.390625 81.328125 257.808594 81.328125 258.324219 C 81.328125 258.84375 80.738281 259.261719 80.003906 259.261719 L 64.996094 259.261719 C 64.261719 259.261719 63.671875 258.84375 63.671875 258.324219 C 63.671875 257.808594 64.261719 257.390625 64.996094 257.390625 Z M 64.996094 257.390625 " fill-opacity="1" fill-rule="nonzero"/></g><g fill="#000000" fill-opacity="1"><g transform="translate(96.379619, 195.863586)"><g><path d="M 21.132812 -28.742188 C 22.25 -28.742188 23.101562 -29.648438 23.101562 -30.710938 L 23.101562 -33.691406 C 23.101562 -34.757812 22.25 -35.664062 21.132812 -35.664062 L 7.132812 -35.664062 C 6.066406 -35.664062 5.214844 -34.757812 5.214844 -33.691406 L 5.214844 -1.96875 C 5.214844 -0.90625 6.066406 0 7.132812 0 L 21.132812 0 C 22.25 0 23.101562 -0.90625 23.101562 -1.96875 L 23.101562 -4.949219 C 23.101562 -6.015625 22.25 -6.917969 21.132812 -6.917969 L 12.1875 -6.917969 L 12.1875 -14.585938 L 19.695312 -14.585938 C 20.757812 -14.585938 21.664062 -15.4375 21.664062 -16.5 L 21.664062 -19.535156 C 21.664062 -20.597656 20.757812 -21.449219 19.695312 -21.449219 L 12.1875 -21.449219 L 12.1875 -28.742188 Z M 21.132812 -28.742188 "/></g></g></g><g fill="#000000" fill-opacity="1"><g transform="translate(124.27038, 195.863586)"><g><path d="M 16.074219 -31.296875 C 17.140625 -31.296875 18.042969 -32.148438 18.042969 -33.265625 L 18.042969 -36.78125 C 18.042969 -37.84375 17.140625 -38.695312 16.074219 -38.695312 L 13.039062 -38.695312 C 11.921875 -38.695312 11.070312 -37.84375 11.070312 -36.78125 L 11.070312 -33.265625 C 11.070312 -32.148438 11.921875 -31.296875 13.039062 -31.296875 Z M 2.183594 -1.96875 C 2.183594 -0.90625 3.035156 0 4.097656 0 L 24.75 0 C 25.816406 0 26.667969 -0.90625 26.667969 -1.96875 L 26.667969 -4.3125 C 26.667969 -5.375 25.816406 -6.28125 24.75 -6.28125 L 18.042969 -6.28125 L 18.042969 -26.242188 C 18.042969 -27.304688 17.140625 -28.15625 16.074219 -28.15625 L 6.335938 -28.15625 C 5.269531 -28.15625 4.417969 -27.304688 4.417969 -26.242188 L 4.417969 -23.847656 C 4.417969 -22.78125 5.269531 -21.929688 6.335938 -21.929688 L 11.070312 -21.929688 L 11.070312 -6.28125 L 4.097656 -6.28125 C 3.035156 -6.28125 2.183594 -5.375 2.183594 -4.3125 Z M 2.183594 -1.96875 "/></g></g></g><g fill="#000000" fill-opacity="1"><g transform="translate(152.16114, 195.863586)"><g><path d="M 16.820312 -29.007812 C 14 -29.007812 11.816406 -28.050781 10.378906 -26.1875 L 10.378906 -26.242188 C 10.378906 -27.304688 9.472656 -28.15625 8.410156 -28.15625 L 5.375 -28.15625 C 4.3125 -28.15625 3.40625 -27.304688 3.40625 -26.242188 L 3.40625 -1.96875 C 3.40625 -0.90625 4.3125 0 5.375 0 L 8.410156 0 C 9.472656 0 10.378906 -0.90625 10.378906 -1.96875 L 10.378906 -17.777344 C 10.378906 -21.078125 11.496094 -22.355469 14.105469 -22.355469 C 16.714844 -22.355469 17.832031 -21.078125 17.832031 -17.777344 L 17.832031 -1.96875 C 17.832031 -0.90625 18.683594 0 19.800781 0 L 22.835938 0 C 23.898438 0 24.75 -0.90625 24.75 -1.96875 L 24.75 -17.777344 C 24.75 -25.125 21.984375 -29.007812 16.820312 -29.007812 Z M 16.820312 -29.007812 "/></g></g></g><g fill="#000000" fill-opacity="1"><g transform="translate(180.051901, 195.863586)"><g><path d="M 13.945312 0.53125 C 21.078125 0.53125 24.699219 -3.40625 24.699219 -11.179688 L 24.699219 -17.300781 C 24.699219 -25.015625 21.078125 -28.957031 13.945312 -28.957031 C 6.8125 -28.957031 3.195312 -25.015625 3.195312 -17.300781 L 3.195312 -11.179688 C 3.195312 -3.40625 6.8125 0.53125 13.945312 0.53125 Z M 13.945312 -5.75 C 11.285156 -5.75 10.167969 -7.027344 10.167969 -10.324219 L 10.167969 -18.097656 C 10.167969 -21.398438 11.285156 -22.675781 13.945312 -22.675781 C 16.605469 -22.675781 17.726562 -21.398438 17.726562 -18.097656 L 17.726562 -10.324219 C 17.726562 -7.027344 16.605469 -5.75 13.945312 -5.75 Z M 13.945312 -5.75 "/></g></g></g><g fill="#000000" fill-opacity="1"><g transform="translate(207.942661, 195.863586)"><g/></g></g><g fill="#000000" fill-opacity="1"><g transform="translate(222.846118, 195.863586)"><g><path d="M 22.089844 -28.742188 C 23.152344 -28.742188 24.058594 -29.648438 24.058594 -30.710938 L 24.058594 -33.691406 C 24.058594 -34.757812 23.152344 -35.664062 22.089844 -35.664062 L 5.855469 -35.664062 C 4.789062 -35.664062 3.886719 -34.757812 3.886719 -33.691406 L 3.886719 -30.710938 C 3.886719 -29.648438 4.789062 -28.742188 5.855469 -28.742188 L 10.484375 -28.742188 L 10.484375 -6.917969 L 5.855469 -6.917969 C 4.789062 -6.917969 3.886719 -6.015625 3.886719 -4.949219 L 3.886719 -1.96875 C 3.886719 -0.90625 4.789062 0 5.855469 0 L 22.089844 0 C 23.152344 0 24.058594 -0.90625 24.058594 -1.96875 L 24.058594 -4.949219 C 24.058594 -6.015625 23.152344 -6.917969 22.089844 -6.917969 L 17.457031 -6.917969 L 17.457031 -28.742188 Z M 22.089844 -28.742188 "/></g></g></g><g fill="#000000" fill-opacity="1"><g transform="translate(250.736878, 195.863586)"><g><path d="M 4.257812 -35.664062 C 3.195312 -35.664062 2.289062 -34.757812 2.289062 -33.691406 L 2.289062 -30.710938 C 2.289062 -29.648438 3.195312 -28.742188 4.257812 -28.742188 L 10.484375 -28.742188 L 10.484375 -1.96875 C 10.484375 -0.90625 11.335938 0 12.457031 0 L 15.542969 0 C 16.605469 0 17.457031 -0.90625 17.457031 -1.96875 L 17.457031 -28.742188 L 23.6875 -28.742188 C 24.75 -28.742188 25.65625 -29.648438 25.65625 -30.710938 L 25.65625 -33.691406 C 25.65625 -34.757812 24.75 -35.664062 23.6875 -35.664062 Z M 4.257812 -35.664062 "/></g></g></g><g fill="#000000" fill-opacity="1"><g transform="translate(256.969303, 146.63537)"><g><path d="M 0.6875 0.0625 L 0.765625 -0.875 L 1.78125 -0.78125 L 2.375 -7.125 L 1.359375 -7.21875 L 1.4375 -8.15625 L 4.46875 -7.875 L 4.390625 -6.9375 L 3.375 -7.03125 L 2.78125 -0.6875 L 3.796875 -0.59375 L 3.71875 0.34375 Z M 0.6875 0.0625 "/></g></g></g><g fill="#000000" fill-opacity="1"><g transform="translate(262.00549, 147.065462)"><g><path d="M 2.453125 0.859375 L 4.859375 -6.046875 L 2.53125 -6.859375 L 2.84375 -7.734375 L 8.453125 -5.78125 L 8.140625 -4.90625 L 5.828125 -5.703125 L 3.421875 1.203125 Z M 2.453125 0.859375 "/></g></g></g><g fill="#000000" fill-opacity="1"><g transform="translate(268.361144, 149.43754)"><g><path d="M 2.1875 -2 L 2.640625 -2.6875 L 5.71875 -0.609375 L 5.265625 0.078125 Z M 2.1875 -2 "/></g></g></g><g fill="#000000" fill-opacity="1"><g transform="translate(273.08252, 152.506149)"><g><path d="M 0.09375 0.125 L 8.21875 -3.046875 L 9.234375 -1.84375 L 4.703125 5.59375 L 4.015625 4.78125 L 5.21875 2.859375 L 2.890625 0.078125 L 0.796875 0.9375 Z M 3.765625 -0.25 L 5.703125 2.0625 L 8.0625 -1.734375 L 7.90625 -1.921875 Z M 3.765625 -0.25 "/></g></g></g><g fill="#000000" fill-opacity="1"><g transform="translate(278.056477, 158.596228)"><g><path d="M 0.375 0.890625 L 8.015625 -2.234375 L 9.65625 1.8125 L 9.015625 3.328125 L 6.40625 4.40625 L 4.84375 3.78125 L 3.59375 0.6875 L 0.765625 1.84375 Z M 4.453125 0.328125 L 5.53125 3 L 6.328125 3.328125 L 8.3125 2.53125 L 8.65625 1.71875 L 7.5625 -0.9375 Z M 4.453125 0.328125 "/></g></g></g><g fill="#000000" fill-opacity="1"><g transform="translate(280.815085, 165.270592)"><g><path d="M 0.140625 2 L 1.234375 0.734375 L 8.296875 0.21875 L 8.359375 1.25 L 1.65625 1.734375 L 1.078125 2.390625 L 1.296875 5.34375 L 1.96875 5.90625 L 8.671875 5.421875 L 8.75 6.453125 L 1.6875 6.96875 L 0.421875 5.859375 Z M 0.140625 2 "/></g></g></g></svg>